<svg xmlns="http://www.w3.org/2000/svg" width="100%" height="100%" viewBox="0 0 128 128" fill-rule="evenodd" stroke-linejoin="round" stroke-miterlimit="2"><path d="M38.894 64.174c-2.109-4.101-3.3-8.75-3.3-13.676 0-16.543 13.431-29.973 29.974-29.973s29.973 13.43 29.973 29.973a29.83 29.83 0 0 1-3.299 13.676c2.108 4.102 3.299 8.751 3.299 13.677 0 16.542-13.431 29.973-29.973 29.973S35.594 94.393 35.594 77.851c0-4.926 1.191-9.575 3.3-13.677zm3.423 5.233c-.958 2.635-1.481 5.479-1.481 8.444 0 13.65 11.082 24.731 24.732 24.731s24.731-11.081 24.731-24.731c0-2.965-.522-5.809-1.481-8.444-5.498 6.75-13.874 11.065-23.25 11.065s-17.753-4.315-23.251-11.065z"/></svg>