<svg xmlns="http://www.w3.org/2000/svg" width="100%" height="100%" viewBox="0 0 128 128" fill-rule="evenodd" stroke-linejoin="round" stroke-miterlimit="2"><path d="M80.193 80.018c-1.28 15.367-14.174 27.457-29.869 27.457-16.543 0-29.974-13.43-29.974-29.973 0-15.695 12.09-28.589 27.457-29.869 1.28-15.367 14.174-27.457 29.869-27.457 16.543 0 29.974 13.431 29.974 29.973 0 15.696-12.09 28.589-27.457 29.869zm-.02-5.262c12.479-1.253 22.235-11.8 22.235-24.607 0-13.65-11.082-24.731-24.732-24.731-12.807 0-23.353 9.755-24.607 22.235 14.354 1.306 25.798 12.75 27.104 27.103z"/></svg>