<svg xmlns="http://www.w3.org/2000/svg" width="100%" height="100%" viewBox="0 0 128 128" fill-rule="evenodd" stroke-linejoin="round" stroke-miterlimit="2"><path d="M52.248 75.201c-2.288.464-4.77.712-7.364.694-6.842-.048-12.878-1.941-16.62-4.695-3.039-2.238-4.662-5.08-4.641-8.036s1.683-5.776 4.753-7.97c3.78-2.703 9.841-4.511 16.683-4.464 2.585.018 5.054.3 7.328.791-.449-2.255-.69-4.697-.673-7.248.046-6.842 1.937-12.878 4.691-16.621 2.237-3.039 5.079-4.663 8.035-4.643s5.775 1.681 7.971 4.751c2.703 3.779 4.514 9.84 4.468 16.682-.019 2.819-.351 5.502-.928 7.943 2.233-.438 4.646-.672 7.165-.654 6.842.048 12.878 1.941 16.62 4.696 3.039 2.237 4.662 5.079 4.641 8.035s-1.683 5.776-4.753 7.971c-3.78 2.702-9.841 4.51-16.683 4.463-2.576-.018-5.037-.298-7.305-.786.497 2.358.765 4.929.747 7.62-.048 6.842-1.941 12.878-4.696 16.62-2.237 3.039-5.08 4.662-8.036 4.641s-5.775-1.683-7.97-4.753c-2.702-3.78-4.511-9.841-4.463-16.683.021-2.978.391-5.804 1.03-8.354zm17.694-20.972c1.057-2.761 1.671-6.158 1.695-9.822.038-5.562-1.292-10.526-3.489-13.598-1.073-1.5-2.299-2.549-3.744-2.559s-2.684 1.023-3.777 2.509c-2.238 3.042-3.634 7.988-3.671 13.549-.023 3.36.454 6.502 1.319 9.14 1.275.588 2.419 1.253 3.404 1.978 1.071.789 1.966 1.652 2.675 2.57.598-.636 1.292-1.24 2.079-1.802 1.015-.725 2.194-1.387 3.509-1.965zM58.36 73.261c-1.181 2.848-1.873 6.438-1.901 10.33-.038 5.562 1.29 10.526 3.486 13.599 1.073 1.5 2.299 2.55 3.743 2.56s2.685-1.023 3.778-2.508c2.239-3.041 3.636-7.987 3.675-13.548.025-3.527-.5-6.814-1.448-9.531-1.263-.584-2.395-1.244-3.372-1.963-1.071-.789-1.966-1.652-2.675-2.57-.598.637-1.292 1.24-2.079 1.802-.937.67-2.013 1.284-3.207 1.829z"/></svg>