<svg xmlns="http://www.w3.org/2000/svg" width="100%" height="100%" viewBox="0 0 128 128" fill-rule="evenodd" stroke-linejoin="round" stroke-miterlimit="2"><path d="M48.249 67.917a35.98 35.98 0 0 1-6.745-3.036c-5.924-3.422-10.236-8.051-12.127-12.295-1.537-3.447-1.543-6.72-.064-9.28s4.317-4.189 8.071-4.58c4.621-.481 10.785.942 16.709 4.365 2.238 1.293 4.245 2.758 5.98 4.309.724-2.183 1.721-4.425 2.997-6.634 3.421-5.925 8.048-10.238 12.292-12.131 3.446-1.537 6.719-1.544 9.279-.066s4.191 4.316 4.582 8.069c.483 4.622-.938 10.785-4.359 16.711-1.41 2.442-3.025 4.609-4.733 6.447 2.158.723 4.371 1.712 6.553 2.972 5.924 3.423 10.236 8.052 12.127 12.296 1.537 3.447 1.543 6.72.064 9.279s-4.317 4.19-8.071 4.58c-4.621.481-10.785-.942-16.709-4.364-2.231-1.289-4.232-2.748-5.962-4.294-.734 2.296-1.771 4.664-3.117 6.994-3.423 5.925-8.051 10.236-12.295 12.128-3.448 1.537-6.721 1.542-9.28.064s-4.189-4.317-4.58-8.071c-.481-4.622.942-10.785 4.365-16.71 1.489-2.578 3.208-4.852 5.023-6.753zm10.487-14.469c-1.843-2.101-4.33-4.123-7.265-5.818-4.816-2.783-9.788-4.081-13.545-3.69-1.834.191-3.352.738-4.075 1.988s-.438 2.84.313 4.524c1.538 3.45 5.146 7.108 9.962 9.891 3.076 1.776 6.215 2.948 9.06 3.461.785-.496 1.566-.919 2.335-1.261 1.44-.642 2.85-1.017 4.19-1.128-.509-1.157-.849-2.478-1.001-3.938-.13-1.243-.122-2.598.026-4.029zm10.659 20.688c1.849 2.125 4.356 4.171 7.322 5.884 4.816 2.782 9.788 4.081 13.545 3.69 1.834-.191 3.352-.738 4.074-1.989s.439-2.839-.312-4.523c-1.538-3.45-5.147-7.109-9.962-9.891-2.943-1.7-5.945-2.847-8.692-3.392-.94.63-1.878 1.155-2.798 1.565-1.441.643-2.852 1.018-4.192 1.129.509 1.158.849 2.48 1.001 3.941.116 1.114.121 2.318.014 3.586z"/></svg>