<svg xmlns="http://www.w3.org/2000/svg" width="100%" height="100%" viewBox="0 0 128 128" fill-rule="evenodd" stroke-linejoin="round" stroke-miterlimit="2"><path d="M48.249 67.917a35.98 35.98 0 0 1-6.745-3.036c-5.924-3.422-10.236-8.051-12.127-12.295-1.537-3.447-1.543-6.72-.064-9.28s4.317-4.189 8.071-4.58c4.621-.481 10.785.942 16.709 4.365 2.238 1.293 4.245 2.758 5.98 4.309.724-2.183 1.721-4.425 2.997-6.634 3.421-5.925 8.048-10.238 12.292-12.131 3.446-1.537 6.719-1.544 9.279-.066s4.191 4.316 4.582 8.069c.483 4.622-.938 10.785-4.359 16.711-1.41 2.442-3.025 4.609-4.733 6.447 2.158.723 4.371 1.712 6.553 2.972 5.924 3.423 10.236 8.052 12.127 12.296 1.537 3.447 1.543 6.72.064 9.279s-4.317 4.19-8.071 4.58c-4.621.481-10.785-.942-16.709-4.364-2.231-1.289-4.232-2.748-5.962-4.294-.734 2.296-1.771 4.664-3.117 6.994-3.423 5.925-8.051 10.236-12.295 12.128-3.448 1.537-6.721 1.542-9.28.064s-4.189-4.317-4.58-8.071c-.481-4.622.942-10.785 4.365-16.71 1.489-2.578 3.208-4.852 5.023-6.753zm25.747-9.487c2.283-1.879 4.496-4.528 6.328-7.702 2.781-4.817 4.078-9.789 3.686-13.546-.191-1.834-.739-3.352-1.99-4.074s-2.839-.437-4.523.314c-3.449 1.539-7.107 5.148-9.888 9.965-1.68 2.91-2.818 5.876-3.37 8.598.818 1.141 1.484 2.284 1.982 3.401.541 1.215.893 2.409 1.056 3.557.834-.258 1.736-.439 2.697-.539 1.241-.13 2.593-.121 4.022.026zM54.521 69.251c-2.433 1.892-4.81 4.671-6.757 8.042-2.782 4.815-4.081 9.787-3.69 13.544.191 1.834.738 3.353 1.989 4.075s2.839.438 4.523-.313c3.45-1.537 7.109-5.146 9.891-9.962 1.765-3.054 2.933-6.171 3.451-9.001-.809-1.132-1.467-2.265-1.961-3.373-.541-1.215-.893-2.408-1.056-3.556-.834.257-1.736.439-2.697.539-1.146.119-2.385.122-3.693.005z"/></svg>